<?xml version="1.0" encoding="utf-8"?>
<!DOCTYPE svg PUBLIC "-//W3C//DTD SVG 1.1//EN" "http://www.w3.org/Graphics/SVG/1.1/DTD/svg11.dtd">
<svg version="1.1" id="chameleon" xmlns="http://www.w3.org/2000/svg" xmlns:xlink="http://www.w3.org/1999/xlink"
     x="0px" y="0px" width="128px" height="128px" viewBox="0 0 50 50" xml:space="preserve">
    <defs>
        <linearGradient id="hue" x1="0" y1="0" x2="0" y2="1">
            <stop offset="0%" stop-color="#ff9090"/>
            <stop offset="17%" stop-color="#ffff90"/>
            <stop offset="34%" stop-color="#90ff90"/>
            <stop offset="50%" stop-color="#90ffff"/>
            <stop offset="66%" stop-color="#9090ff"/>
            <stop offset="82%" stop-color="#ff90ff"/>
            <stop offset="100%" stop-color="#ff9090"/>
        </linearGradient>
        <linearGradient id="green" x1="0" y1="0" x2="1" y2="0">
            <stop offset="0%" stop-color="#83a954"/>
            <stop offset="5%" stop-color="#6f8a45"/>
            <stop offset="10%" stop-color="#587429"/>
            <stop offset="15%" stop-color="#7aa124"/>
            <stop offset="20%" stop-color="#8cb229"/>
            <stop offset="25%" stop-color="#98bb29"/>
            <stop offset="30%" stop-color="#95b72c"/>
            <stop offset="35%" stop-color="#6e922e"/>
            <stop offset="40%" stop-color="#768f4b"/>
            <stop offset="45%" stop-color="#6d845a"/>
            <stop offset="50%" stop-color="#597c52"/>
            <stop offset="55%" stop-color="#587853"/>
            <stop offset="60%" stop-color="#5d7e51"/>
            <stop offset="65%" stop-color="#688451"/>
            <stop offset="70%" stop-color="#6c9053"/>
            <stop offset="75%" stop-color="#7a9e5e"/>
            <stop offset="80%" stop-color="#749e56"/>
            <stop offset="85%" stop-color="#5c7f47"/>
            <stop offset="90%" stop-color="#42623b"/>
            <stop offset="95%" stop-color="#3b5e34"/>
            <stop offset="100%" stop-color="#345230"/>
        </linearGradient>
    </defs>
    <rect x="0" y="0" width="50" height="24" fill="url(#green)"/>
    <rect x="0" y="24" width="50" height="26" fill="black"/>
    <text fill="#ffffff" font-size="8" font-family="Verdana,Arial,sans-serif" x="19" y="37">Darwin</text>
    <text fill="#ffffff" font-size="8" font-family="Verdana,Arial,sans-serif" x="19" y="46">Pricing</text>
    <g transform="translate(41.5,0)">
        <g transform="scale(-1,1)">
            <g transform="translate(.9,.9)">
                <path d="M31.024,13.426c-4-1.012-7.199-0.758-11.431,1.771c-0.097-0.924-2.53-3.697-5.497-1.75
                    c-3.162-0.391-3.162,2.869-3.162,2.869S9.206,19.355,9.183,20.5c-0.016,0.766,0.446,0.973,0.888,1.105
                    c2.285-1.301,4.359-0.992,6.044-0.74c0.878,0.131,1.639,0.242,2.208,0.082c0.197-0.057,0.404,0.06,0.46,0.258
                    c0.056,0.197-0.06,0.404-0.257,0.461c-0.724,0.203-1.557,0.08-2.521-0.064c-1.508-0.225-3.35-0.486-5.328,0.535
                    c1.878,3.272,7.082,4.382,10.862,1.769c0.825,0.052,1.907,0.175,3.074,0.272c0.215,0.017,0.004,0.697-0.205,1.375
                    c-0.073,0.236-2.863,0.82-2.918,1.027c-0.101,0.389,2.537,0.072,2.725,0.341c0.187,0.27-0.34,1.508-0.097,2.093
                    c0.162,0.389,1.48-0.01,1.849-0.925c0.185-0.456-0.593-1.36-0.42-1.722c0.519-1.084,0.974-2.073,1.055-2.071
                    c0.541,0.017,1.08,0.018,1.603-0.007c1.092-0.05,2.147-0.152,3.122-0.237c0.124-0.011,0.332,0.425,0.552,0.933
                    c0.1,0.232-1.828,0.584-1.728,0.813c0.203,0.465,1.897,0.152,2.529,0.734c0.633,0.584,0.653,2.156,1.119,2.336
                    c0.257,0.099,1.334-0.674,1.119-1.654c-0.314-1.43-2.036-3.275-1.946-3.279c1.195-0.055,2.188,0.002,2.87,0.355
                    c2.53,1.309,0.682,11.048-5.643,11.535c-3.445,0.265-4.596-2.491-4.168-4.028c0.423-1.519,2.32-2.345,3.634-2.149
                    c1.313,0.193,1.556,1.41,0.973,2.236c-0.077,0.109-0.166,0.21-0.261,0.303c-0.225-0.228-0.538-0.371-0.884-0.371
                    c-0.686,0-1.242,0.557-1.242,1.242c0,0.687,0.556,1.242,1.242,1.242c0.621,0,1.13-0.455,1.223-1.052
                    c0.334-0.083,0.664-0.245,0.944-0.536c1.119-1.168,0.875-3.26-1.244-3.978c-2.371-0.802-5.694,0.688-5.792,3.218
                    c-0.097,2.529,2.224,5.496,6.221,5.268c5.935-0.342,10.204-6.504,9.965-12.193C40.604,20.208,38.03,15.197,31.024,13.426z"
                      fill="black"/>
            </g>
            <path d="M31.024,13.426c-4-1.012-7.199-0.758-11.431,1.771c-0.097-0.924-2.53-3.697-5.497-1.75
                c-3.162-0.391-3.162,2.869-3.162,2.869S9.206,19.355,9.183,20.5c-0.016,0.766,0.446,0.973,0.888,1.105
                c2.285-1.301,4.359-0.992,6.044-0.74c0.878,0.131,1.639,0.242,2.208,0.082c0.197-0.057,0.404,0.06,0.46,0.258
                c0.056,0.197-0.06,0.404-0.257,0.461c-0.724,0.203-1.557,0.08-2.521-0.064c-1.508-0.225-3.35-0.486-5.328,0.535
                c1.878,3.272,7.082,4.382,10.862,1.769c0.825,0.052,1.907,0.175,3.074,0.272c0.215,0.017,0.004,0.697-0.205,1.375
                c-0.073,0.236-2.863,0.82-2.918,1.027c-0.101,0.389,2.537,0.072,2.725,0.341c0.187,0.27-0.34,1.508-0.097,2.093
                c0.162,0.389,1.48-0.01,1.849-0.925c0.185-0.456-0.593-1.36-0.42-1.722c0.519-1.084,0.974-2.073,1.055-2.071
                c0.541,0.017,1.08,0.018,1.603-0.007c1.092-0.05,2.147-0.152,3.122-0.237c0.124-0.011,0.332,0.425,0.552,0.933
                c0.1,0.232-1.828,0.584-1.728,0.813c0.203,0.465,1.897,0.152,2.529,0.734c0.633,0.584,0.653,2.156,1.119,2.336
                c0.257,0.099,1.334-0.674,1.119-1.654c-0.314-1.43-2.036-3.275-1.946-3.279c1.195-0.055,2.188,0.002,2.87,0.355
                c2.53,1.309,0.682,11.048-5.643,11.535c-3.445,0.265-4.596-2.491-4.168-4.028c0.423-1.519,2.32-2.345,3.634-2.149
                c1.313,0.193,1.556,1.41,0.973,2.236c-0.077,0.109-0.166,0.21-0.261,0.303c-0.225-0.228-0.538-0.371-0.884-0.371
                c-0.686,0-1.242,0.557-1.242,1.242c0,0.687,0.556,1.242,1.242,1.242c0.621,0,1.13-0.455,1.223-1.052
                c0.334-0.083,0.664-0.245,0.944-0.536c1.119-1.168,0.875-3.26-1.244-3.978c-2.371-0.802-5.694,0.688-5.792,3.218
                c-0.097,2.529,2.224,5.496,6.221,5.268c5.935-0.342,10.204-6.504,9.965-12.193C40.604,20.208,38.03,15.197,31.024,13.426z"
                  fill="url(#hue)" stroke="black" stroke-width=".1"/>
            <path d="M16.105,18.895c-1.33,0-2.408-1.078-2.408-2.408s1.078-2.408,2.408-2.408c1.329,0,2.407,1.078,2.407,2.408
                S17.435,18.895,16.105,18.895z" fill="black"/>
            <circle cx="16.859" cy="16.249" r="0.827" fill="white"/>
        </g>
    </g>
</svg>
